<svg width="63" height="279" viewBox="0 0 63 279" fill="none" xmlns="http://www.w3.org/2000/svg">
<path d="M63 279V274.031H2.51539e-05L2.55313e-05 279H63Z" fill="url(#paint0_linear)"/>
<path d="M63 270.481V268.351H2.47225e-05L2.48843e-05 270.481H63Z" fill="url(#paint1_linear)"/>
<path d="M63 262.316V260.186H2.41024e-05L2.42642e-05 262.316H63Z" fill="url(#paint2_linear)"/>
<path d="M63 248.118V237.825H3.67246e-05L3.75064e-05 248.118H63Z" fill="url(#paint3_linear)"/>
<path d="M63 234.275V232.145H2.19728e-05L2.21346e-05 234.275H63Z" fill="url(#paint4_linear)"/>
<path d="M63 228.596V220.787H2.11102e-05L2.17032e-05 228.596H63Z" fill="url(#paint5_linear)"/>
<path d="M63 217.237V209.783H2.02745e-05L2.08406e-05 217.237H63Z" fill="url(#paint6_linear)"/>
<path d="M63 206.232V204.103H1.98431e-05L2.00048e-05 206.232H63Z" fill="url(#paint7_linear)"/>
<path d="M63 195.23V190.26H1.87918e-05L1.91692e-05 195.23H63Z" fill="url(#paint8_linear)"/>
<path d="M63 186.711V184.581H1.83605e-05L1.85222e-05 186.711H63Z" fill="url(#paint9_linear)"/>
<path d="M63 172.866V167.897H1.70934e-05L1.74708e-05 172.866H63Z" fill="url(#paint10_linear)"/>
<path d="M63 164.347V162.217H4.53029e-05L4.54647e-05 164.347H63Z" fill="url(#paint11_linear)"/>
<path d="M63 155.828V151.214H4.44672e-05L4.48177e-05 155.828H63Z" fill="url(#paint12_linear)"/>
<path d="M63 139.145V137.015H4.33889e-05L4.35507e-05 139.145H63Z" fill="url(#paint13_linear)"/>
<path d="M63 130.626V128.496H4.27419e-05L4.29037e-05 130.626H63Z" fill="url(#paint14_linear)"/>
<path d="M63 124.947V123.172L4.23376e-05 123.172L4.24723e-05 124.947H63Z" fill="url(#paint15_linear)"/>
<path d="M63 111.103V106.134L4.10436e-05 106.134L4.1421e-05 111.103H63Z" fill="url(#paint16_linear)"/>
<path d="M63 102.939V100.809H4.06392e-05L4.0801e-05 102.939H63Z" fill="url(#paint17_linear)"/>
<path d="M63 94.4192V92.2894H3.99921e-05L4.01539e-05 94.4192H63Z" fill="url(#paint18_linear)"/>
<path d="M63 88.7408V86.611H3.95609e-05L3.97226e-05 88.7408H63Z" fill="url(#paint19_linear)"/>
<path d="M63 80.5768V69.928H3.82939e-05L3.91026e-05 80.5768H63Z" fill="url(#paint20_linear)"/>
<path d="M63 63.5387V61.4089H3.76469e-05L3.78086e-05 63.5387H63Z" fill="url(#paint21_linear)"/>
<path d="M63 57.8593V53.2449H3.70268e-05L3.73773e-05 57.8593H63Z" fill="url(#paint22_linear)"/>
<path d="M63 46.8546L63 44.7249H3.63798e-05L3.65415e-05 46.8546H63Z" fill="url(#paint23_linear)"/>
<path d="M63 33.0113V30.8816L3.53284e-05 30.8816L3.54902e-05 33.0113H63Z" fill="url(#paint24_linear)"/>
<path d="M63 19.1679V17.038L5.63614e-06 17.038L5.7979e-06 19.1679L63 19.1679Z" fill="url(#paint25_linear)"/>
<path d="M63 10.6488V5.67939L0 5.67939L3.77413e-07 10.6488L63 10.6488Z" fill="url(#paint26_linear)"/>
<path d="M63 2.12977V0L1.86626e-05 1.58497e-06L1.88244e-05 2.12978L63 2.12977Z" fill="url(#paint27_linear)"/>
<defs>
<linearGradient id="paint0_linear" x1="31.2744" y1="279" x2="31.2744" y2="-39.5" gradientUnits="userSpaceOnUse">
<stop stop-color="#575757"/>
<stop offset="1" stop-color="#C6C6C6"/>
</linearGradient>
<linearGradient id="paint1_linear" x1="31.2744" y1="279" x2="31.2744" y2="-39.5" gradientUnits="userSpaceOnUse">
<stop stop-color="#575757"/>
<stop offset="1" stop-color="#C6C6C6"/>
</linearGradient>
<linearGradient id="paint2_linear" x1="31.2744" y1="279" x2="31.2744" y2="-39.5" gradientUnits="userSpaceOnUse">
<stop stop-color="#575757"/>
<stop offset="1" stop-color="#C6C6C6"/>
</linearGradient>
<linearGradient id="paint3_linear" x1="31.2744" y1="279" x2="31.2744" y2="-39.5" gradientUnits="userSpaceOnUse">
<stop stop-color="#575757"/>
<stop offset="1" stop-color="#C6C6C6"/>
</linearGradient>
<linearGradient id="paint4_linear" x1="31.2744" y1="279" x2="31.2744" y2="-39.5" gradientUnits="userSpaceOnUse">
<stop stop-color="#575757"/>
<stop offset="1" stop-color="#C6C6C6"/>
</linearGradient>
<linearGradient id="paint5_linear" x1="31.2744" y1="279" x2="31.2744" y2="-39.5" gradientUnits="userSpaceOnUse">
<stop stop-color="#575757"/>
<stop offset="1" stop-color="#C6C6C6"/>
</linearGradient>
<linearGradient id="paint6_linear" x1="31.2744" y1="279" x2="31.2744" y2="-39.5" gradientUnits="userSpaceOnUse">
<stop stop-color="#575757"/>
<stop offset="1" stop-color="#C6C6C6"/>
</linearGradient>
<linearGradient id="paint7_linear" x1="31.2744" y1="279" x2="31.2744" y2="-39.5" gradientUnits="userSpaceOnUse">
<stop stop-color="#575757"/>
<stop offset="1" stop-color="#C6C6C6"/>
</linearGradient>
<linearGradient id="paint8_linear" x1="31.2744" y1="279" x2="31.2744" y2="-39.5" gradientUnits="userSpaceOnUse">
<stop stop-color="#575757"/>
<stop offset="1" stop-color="#C6C6C6"/>
</linearGradient>
<linearGradient id="paint9_linear" x1="31.2744" y1="279" x2="31.2744" y2="-39.5" gradientUnits="userSpaceOnUse">
<stop stop-color="#575757"/>
<stop offset="1" stop-color="#C6C6C6"/>
</linearGradient>
<linearGradient id="paint10_linear" x1="31.2744" y1="279" x2="31.2744" y2="-39.5" gradientUnits="userSpaceOnUse">
<stop stop-color="#575757"/>
<stop offset="1" stop-color="#C6C6C6"/>
</linearGradient>
<linearGradient id="paint11_linear" x1="31.2744" y1="279" x2="31.2744" y2="-39.5" gradientUnits="userSpaceOnUse">
<stop stop-color="#575757"/>
<stop offset="1" stop-color="#C6C6C6"/>
</linearGradient>
<linearGradient id="paint12_linear" x1="31.2744" y1="279" x2="31.2744" y2="-39.5" gradientUnits="userSpaceOnUse">
<stop stop-color="#575757"/>
<stop offset="1" stop-color="#C6C6C6"/>
</linearGradient>
<linearGradient id="paint13_linear" x1="31.2744" y1="279" x2="31.2744" y2="-39.5" gradientUnits="userSpaceOnUse">
<stop stop-color="#575757"/>
<stop offset="1" stop-color="#C6C6C6"/>
</linearGradient>
<linearGradient id="paint14_linear" x1="31.2744" y1="279" x2="31.2744" y2="-39.5" gradientUnits="userSpaceOnUse">
<stop stop-color="#575757"/>
<stop offset="1" stop-color="#C6C6C6"/>
</linearGradient>
<linearGradient id="paint15_linear" x1="31.2744" y1="279" x2="31.2744" y2="-39.5" gradientUnits="userSpaceOnUse">
<stop stop-color="#575757"/>
<stop offset="1" stop-color="#C6C6C6"/>
</linearGradient>
<linearGradient id="paint16_linear" x1="31.2744" y1="279" x2="31.2744" y2="-39.5" gradientUnits="userSpaceOnUse">
<stop stop-color="#575757"/>
<stop offset="1" stop-color="#C6C6C6"/>
</linearGradient>
<linearGradient id="paint17_linear" x1="31.2744" y1="279" x2="31.2744" y2="-39.5" gradientUnits="userSpaceOnUse">
<stop stop-color="#575757"/>
<stop offset="1" stop-color="#C6C6C6"/>
</linearGradient>
<linearGradient id="paint18_linear" x1="31.2744" y1="279" x2="31.2744" y2="-39.5" gradientUnits="userSpaceOnUse">
<stop stop-color="#575757"/>
<stop offset="1" stop-color="#C6C6C6"/>
</linearGradient>
<linearGradient id="paint19_linear" x1="31.2744" y1="279" x2="31.2744" y2="-39.5" gradientUnits="userSpaceOnUse">
<stop stop-color="#575757"/>
<stop offset="1" stop-color="#C6C6C6"/>
</linearGradient>
<linearGradient id="paint20_linear" x1="31.2744" y1="279" x2="31.2744" y2="-39.5" gradientUnits="userSpaceOnUse">
<stop stop-color="#575757"/>
<stop offset="1" stop-color="#C6C6C6"/>
</linearGradient>
<linearGradient id="paint21_linear" x1="31.2744" y1="279" x2="31.2744" y2="-39.5" gradientUnits="userSpaceOnUse">
<stop stop-color="#575757"/>
<stop offset="1" stop-color="#C6C6C6"/>
</linearGradient>
<linearGradient id="paint22_linear" x1="31.2744" y1="279" x2="31.2744" y2="-39.5" gradientUnits="userSpaceOnUse">
<stop stop-color="#575757"/>
<stop offset="1" stop-color="#C6C6C6"/>
</linearGradient>
<linearGradient id="paint23_linear" x1="31.2744" y1="279" x2="31.2744" y2="-39.5" gradientUnits="userSpaceOnUse">
<stop stop-color="#575757"/>
<stop offset="1" stop-color="#C6C6C6"/>
</linearGradient>
<linearGradient id="paint24_linear" x1="31.2744" y1="279" x2="31.2744" y2="-39.5" gradientUnits="userSpaceOnUse">
<stop stop-color="#575757"/>
<stop offset="1" stop-color="#C6C6C6"/>
</linearGradient>
<linearGradient id="paint25_linear" x1="31.2744" y1="279" x2="31.2744" y2="-39.5" gradientUnits="userSpaceOnUse">
<stop stop-color="#575757"/>
<stop offset="1" stop-color="#C6C6C6"/>
</linearGradient>
<linearGradient id="paint26_linear" x1="31.2744" y1="279" x2="31.2744" y2="-39.5" gradientUnits="userSpaceOnUse">
<stop stop-color="#575757"/>
<stop offset="1" stop-color="#C6C6C6"/>
</linearGradient>
<linearGradient id="paint27_linear" x1="31.2744" y1="279" x2="31.2744" y2="-39.5" gradientUnits="userSpaceOnUse">
<stop stop-color="#575757"/>
<stop offset="1" stop-color="#C6C6C6"/>
</linearGradient>
</defs>
</svg>
