<svg width="251" height="58" viewBox="0 0 251 58" fill="none" xmlns="http://www.w3.org/2000/svg">
<path d="M3.486 11.6H16.842C20.034 11.6 22.848 12.216 25.284 13.448C27.748 14.652 29.652 16.36 30.996 18.572C32.368 20.784 33.054 23.36 33.054 26.3C33.054 29.24 32.368 31.816 30.996 34.028C29.652 36.24 27.748 37.962 25.284 39.194C22.848 40.398 20.034 41 16.842 41H3.486V11.6ZM16.506 35.414C19.446 35.414 21.784 34.602 23.52 32.978C25.284 31.326 26.166 29.1 26.166 26.3C26.166 23.5 25.284 21.288 23.52 19.664C21.784 18.012 19.446 17.186 16.506 17.186H10.29V35.414H16.506ZM53.7672 11.096C57.2672 11.096 59.9972 12.202 61.9572 14.414C63.9172 16.598 64.8972 19.72 64.8972 23.78V41H58.0932V23.99C58.0932 21.638 57.5332 19.874 56.4132 18.698C55.3212 17.494 53.7952 16.892 51.8352 16.892C49.7632 16.892 48.0972 17.536 46.8372 18.824C45.6052 20.084 44.9892 21.96 44.9892 24.452V41H38.1852V11.6H44.7792V15.17C45.7872 13.826 47.0472 12.818 48.5592 12.146C50.0712 11.446 51.8072 11.096 53.7672 11.096ZM71.613 11.6H84.969C88.161 11.6 90.975 12.216 93.411 13.448C95.875 14.652 97.779 16.36 99.123 18.572C100.495 20.784 101.181 23.36 101.181 26.3C101.181 29.24 100.495 31.816 99.123 34.028C97.779 36.24 95.875 37.962 93.411 39.194C90.975 40.398 88.161 41 84.969 41H71.613V11.6ZM84.633 35.414C87.573 35.414 89.911 34.602 91.647 32.978C93.411 31.326 94.293 29.1 94.293 26.3C94.293 23.5 93.411 21.288 91.647 19.664C89.911 18.012 87.573 17.186 84.633 17.186H78.417V35.414H84.633Z" fill="url(#paint0_linear)"/>
<path d="M126.712 41.252C124.528 41.252 122.428 40.902 120.412 40.202C118.424 39.502 116.884 38.578 115.792 37.43L117.01 35.036C118.074 36.1 119.488 36.968 121.252 37.64C123.016 38.284 124.836 38.606 126.712 38.606C129.344 38.606 131.318 38.13 132.634 37.178C133.95 36.198 134.608 34.938 134.608 33.398C134.608 32.222 134.244 31.284 133.516 30.584C132.816 29.884 131.948 29.352 130.912 28.988C129.876 28.596 128.434 28.176 126.586 27.728C124.374 27.168 122.61 26.636 121.294 26.132C119.978 25.6 118.844 24.802 117.892 23.738C116.968 22.674 116.506 21.232 116.506 19.412C116.506 17.928 116.898 16.584 117.682 15.38C118.466 14.148 119.67 13.168 121.294 12.44C122.918 11.712 124.934 11.348 127.342 11.348C129.022 11.348 130.66 11.586 132.256 12.062C133.88 12.51 135.28 13.14 136.456 13.952L135.406 16.43C134.174 15.618 132.858 15.016 131.458 14.624C130.058 14.204 128.686 13.994 127.342 13.994C124.766 13.994 122.82 14.498 121.504 15.506C120.216 16.486 119.572 17.76 119.572 19.328C119.572 20.504 119.922 21.456 120.622 22.184C121.35 22.884 122.246 23.43 123.31 23.822C124.402 24.186 125.858 24.592 127.678 25.04C129.834 25.572 131.57 26.104 132.886 26.636C134.23 27.14 135.364 27.924 136.288 28.988C137.212 30.024 137.674 31.438 137.674 33.23C137.674 34.714 137.268 36.072 136.456 37.304C135.672 38.508 134.454 39.474 132.802 40.202C131.15 40.902 129.12 41.252 126.712 41.252ZM154.694 39.656C154.134 40.16 153.448 40.552 152.636 40.832C151.824 41.084 150.97 41.21 150.074 41.21C148.002 41.21 146.406 40.65 145.286 39.53C144.166 38.41 143.606 36.828 143.606 34.784V14.078H146.588V18.908H153.266V21.428H146.588V34.616C146.588 35.932 146.91 36.94 147.554 37.64C148.198 38.312 149.136 38.648 150.368 38.648C151.712 38.648 152.804 38.27 153.644 37.514L154.694 39.656ZM180.007 18.908V41H177.151V36.968C176.367 38.312 175.289 39.362 173.917 40.118C172.545 40.846 170.977 41.21 169.213 41.21C166.329 41.21 164.047 40.412 162.367 38.816C160.715 37.192 159.889 34.826 159.889 31.718V18.908H162.871V31.424C162.871 33.748 163.445 35.512 164.593 36.716C165.741 37.92 167.379 38.522 169.507 38.522C171.831 38.522 173.665 37.822 175.009 36.422C176.353 34.994 177.025 33.02 177.025 30.5V18.908H180.007ZM208.519 9.836V41H205.663V36.632C204.767 38.116 203.577 39.25 202.093 40.034C200.637 40.818 198.985 41.21 197.137 41.21C195.065 41.21 193.189 40.734 191.509 39.782C189.829 38.83 188.513 37.5 187.561 35.792C186.609 34.084 186.133 32.138 186.133 29.954C186.133 27.77 186.609 25.824 187.561 24.116C188.513 22.408 189.829 21.092 191.509 20.168C193.189 19.216 195.065 18.74 197.137 18.74C198.929 18.74 200.539 19.118 201.967 19.874C203.423 20.602 204.613 21.68 205.537 23.108V9.836H208.519ZM197.389 38.564C198.929 38.564 200.315 38.214 201.547 37.514C202.807 36.786 203.787 35.764 204.487 34.448C205.215 33.132 205.579 31.634 205.579 29.954C205.579 28.274 205.215 26.776 204.487 25.46C203.787 24.144 202.807 23.136 201.547 22.436C200.315 21.708 198.929 21.344 197.389 21.344C195.821 21.344 194.407 21.708 193.147 22.436C191.915 23.136 190.935 24.144 190.207 25.46C189.507 26.776 189.157 28.274 189.157 29.954C189.157 31.634 189.507 33.132 190.207 34.448C190.935 35.764 191.915 36.786 193.147 37.514C194.407 38.214 195.821 38.564 197.389 38.564ZM216.824 18.908H219.806V41H216.824V18.908ZM218.336 14.078C217.72 14.078 217.202 13.868 216.782 13.448C216.362 13.028 216.152 12.524 216.152 11.936C216.152 11.376 216.362 10.886 216.782 10.466C217.202 10.046 217.72 9.836 218.336 9.836C218.952 9.836 219.47 10.046 219.89 10.466C220.31 10.858 220.52 11.334 220.52 11.894C220.52 12.51 220.31 13.028 219.89 13.448C219.47 13.868 218.952 14.078 218.336 14.078ZM237.133 41.21C235.005 41.21 233.087 40.734 231.379 39.782C229.671 38.802 228.327 37.458 227.347 35.75C226.367 34.042 225.877 32.11 225.877 29.954C225.877 27.798 226.367 25.866 227.347 24.158C228.327 22.45 229.671 21.12 231.379 20.168C233.087 19.216 235.005 18.74 237.133 18.74C239.261 18.74 241.179 19.216 242.887 20.168C244.595 21.12 245.925 22.45 246.877 24.158C247.857 25.866 248.347 27.798 248.347 29.954C248.347 32.11 247.857 34.042 246.877 35.75C245.925 37.458 244.595 38.802 242.887 39.782C241.179 40.734 239.261 41.21 237.133 41.21ZM237.133 38.564C238.701 38.564 240.101 38.214 241.333 37.514C242.593 36.786 243.573 35.764 244.273 34.448C244.973 33.132 245.323 31.634 245.323 29.954C245.323 28.274 244.973 26.776 244.273 25.46C243.573 24.144 242.593 23.136 241.333 22.436C240.101 21.708 238.701 21.344 237.133 21.344C235.565 21.344 234.151 21.708 232.891 22.436C231.659 23.136 230.679 24.144 229.951 25.46C229.251 26.776 228.901 28.274 228.901 29.954C228.901 31.634 229.251 33.132 229.951 34.448C230.679 35.764 231.659 36.786 232.891 37.514C234.151 38.214 235.565 38.564 237.133 38.564Z" fill="url(#paint1_linear)"/>
<path d="M121.948 46.096V55H121.132V53.752C120.876 54.176 120.536 54.5 120.112 54.724C119.696 54.948 119.224 55.06 118.696 55.06C118.104 55.06 117.568 54.924 117.088 54.652C116.608 54.38 116.232 54 115.96 53.512C115.688 53.024 115.552 52.468 115.552 51.844C115.552 51.22 115.688 50.664 115.96 50.176C116.232 49.688 116.608 49.312 117.088 49.048C117.568 48.776 118.104 48.64 118.696 48.64C119.208 48.64 119.668 48.748 120.076 48.964C120.492 49.172 120.832 49.48 121.096 49.888V46.096H121.948ZM118.768 54.304C119.208 54.304 119.604 54.204 119.956 54.004C120.316 53.796 120.596 53.504 120.796 53.128C121.004 52.752 121.108 52.324 121.108 51.844C121.108 51.364 121.004 50.936 120.796 50.56C120.596 50.184 120.316 49.896 119.956 49.696C119.604 49.488 119.208 49.384 118.768 49.384C118.32 49.384 117.916 49.488 117.556 49.696C117.204 49.896 116.924 50.184 116.716 50.56C116.516 50.936 116.416 51.364 116.416 51.844C116.416 52.324 116.516 52.752 116.716 53.128C116.924 53.504 117.204 53.796 117.556 54.004C117.916 54.204 118.32 54.304 118.768 54.304ZM127.021 54.304C127.413 54.304 127.773 54.236 128.101 54.1C128.437 53.956 128.721 53.748 128.953 53.476L129.433 54.028C129.153 54.364 128.805 54.62 128.389 54.796C127.973 54.972 127.513 55.06 127.009 55.06C126.361 55.06 125.785 54.924 125.281 54.652C124.777 54.372 124.385 53.988 124.105 53.5C123.825 53.012 123.685 52.46 123.685 51.844C123.685 51.228 123.817 50.676 124.081 50.188C124.353 49.7 124.725 49.32 125.197 49.048C125.669 48.776 126.205 48.64 126.805 48.64C127.365 48.64 127.869 48.768 128.317 49.024C128.773 49.28 129.133 49.636 129.397 50.092C129.669 50.548 129.813 51.068 129.829 51.652L124.645 52.66C124.805 53.172 125.093 53.576 125.509 53.872C125.933 54.16 126.437 54.304 127.021 54.304ZM126.805 49.372C126.365 49.372 125.969 49.476 125.617 49.684C125.273 49.884 125.001 50.168 124.801 50.536C124.609 50.896 124.513 51.312 124.513 51.784C124.513 51.904 124.517 51.992 124.525 52.048L128.977 51.184C128.881 50.656 128.637 50.224 128.245 49.888C127.853 49.544 127.373 49.372 126.805 49.372ZM133.255 55.06C132.743 55.06 132.251 54.988 131.779 54.844C131.315 54.692 130.951 54.504 130.687 54.28L131.071 53.608C131.335 53.816 131.667 53.988 132.067 54.124C132.467 54.252 132.883 54.316 133.315 54.316C133.891 54.316 134.315 54.228 134.587 54.052C134.867 53.868 135.007 53.612 135.007 53.284C135.007 53.052 134.931 52.872 134.779 52.744C134.627 52.608 134.435 52.508 134.203 52.444C133.971 52.372 133.663 52.304 133.279 52.24C132.767 52.144 132.355 52.048 132.043 51.952C131.731 51.848 131.463 51.676 131.239 51.436C131.023 51.196 130.915 50.864 130.915 50.44C130.915 49.912 131.135 49.48 131.575 49.144C132.015 48.808 132.627 48.64 133.411 48.64C133.819 48.64 134.227 48.696 134.635 48.808C135.043 48.912 135.379 49.052 135.643 49.228L135.271 49.912C134.751 49.552 134.131 49.372 133.411 49.372C132.867 49.372 132.455 49.468 132.175 49.66C131.903 49.852 131.767 50.104 131.767 50.416C131.767 50.656 131.843 50.848 131.995 50.992C132.155 51.136 132.351 51.244 132.583 51.316C132.815 51.38 133.135 51.448 133.543 51.52C134.047 51.616 134.451 51.712 134.755 51.808C135.059 51.904 135.319 52.068 135.535 52.3C135.751 52.532 135.859 52.852 135.859 53.26C135.859 53.812 135.627 54.252 135.163 54.58C134.707 54.9 134.071 55.06 133.255 55.06ZM137.434 48.688H138.286V55H137.434V48.688ZM137.866 47.308C137.69 47.308 137.542 47.248 137.422 47.128C137.302 47.008 137.242 46.864 137.242 46.696C137.242 46.536 137.302 46.396 137.422 46.276C137.542 46.156 137.69 46.096 137.866 46.096C138.042 46.096 138.19 46.156 138.31 46.276C138.43 46.388 138.49 46.524 138.49 46.684C138.49 46.86 138.43 47.008 138.31 47.128C138.19 47.248 138.042 47.308 137.866 47.308ZM146.501 48.688V54.232C146.501 55.304 146.237 56.096 145.709 56.608C145.189 57.128 144.401 57.388 143.345 57.388C142.761 57.388 142.205 57.3 141.677 57.124C141.157 56.956 140.733 56.72 140.405 56.416L140.837 55.768C141.141 56.04 141.509 56.252 141.941 56.404C142.381 56.556 142.841 56.632 143.321 56.632C144.121 56.632 144.709 56.444 145.085 56.068C145.461 55.7 145.649 55.124 145.649 54.34V53.536C145.385 53.936 145.037 54.24 144.605 54.448C144.181 54.656 143.709 54.76 143.189 54.76C142.597 54.76 142.057 54.632 141.569 54.376C141.089 54.112 140.709 53.748 140.429 53.284C140.157 52.812 140.021 52.28 140.021 51.688C140.021 51.096 140.157 50.568 140.429 50.104C140.709 49.64 141.089 49.28 141.569 49.024C142.049 48.768 142.589 48.64 143.189 48.64C143.725 48.64 144.209 48.748 144.641 48.964C145.073 49.18 145.421 49.492 145.685 49.9V48.688H146.501ZM143.273 54.004C143.729 54.004 144.141 53.908 144.509 53.716C144.877 53.516 145.161 53.24 145.361 52.888C145.569 52.536 145.673 52.136 145.673 51.688C145.673 51.24 145.569 50.844 145.361 50.5C145.161 50.148 144.877 49.876 144.509 49.684C144.149 49.484 143.737 49.384 143.273 49.384C142.817 49.384 142.405 49.48 142.037 49.672C141.677 49.864 141.393 50.136 141.185 50.488C140.985 50.84 140.885 51.24 140.885 51.688C140.885 52.136 140.985 52.536 141.185 52.888C141.393 53.24 141.677 53.516 142.037 53.716C142.405 53.908 142.817 54.004 143.273 54.004ZM152.099 48.64C152.891 48.64 153.519 48.872 153.983 49.336C154.455 49.792 154.691 50.46 154.691 51.34V55H153.839V51.424C153.839 50.768 153.675 50.268 153.347 49.924C153.019 49.58 152.551 49.408 151.943 49.408C151.263 49.408 150.723 49.612 150.323 50.02C149.931 50.42 149.735 50.976 149.735 51.688V55H148.883V48.688H149.699V49.852C149.931 49.468 150.251 49.172 150.659 48.964C151.075 48.748 151.555 48.64 152.099 48.64ZM166.337 55.132L165.173 53.932C164.461 54.692 163.525 55.072 162.365 55.072C161.821 55.072 161.333 54.984 160.901 54.808C160.477 54.624 160.145 54.372 159.905 54.052C159.665 53.724 159.545 53.352 159.545 52.936C159.545 52.432 159.705 51.98 160.025 51.58C160.345 51.18 160.889 50.76 161.657 50.32C161.257 49.904 160.981 49.552 160.829 49.264C160.677 48.968 160.601 48.656 160.601 48.328C160.601 47.792 160.793 47.36 161.177 47.032C161.561 46.704 162.077 46.54 162.725 46.54C163.325 46.54 163.801 46.688 164.153 46.984C164.505 47.28 164.681 47.688 164.681 48.208C164.681 48.624 164.541 49 164.261 49.336C163.981 49.664 163.497 50.028 162.809 50.428L165.113 52.804C165.369 52.348 165.557 51.808 165.677 51.184L166.373 51.4C166.221 52.152 165.973 52.796 165.629 53.332L166.829 54.568L166.337 55.132ZM162.725 47.176C162.309 47.176 161.981 47.28 161.741 47.488C161.509 47.696 161.393 47.972 161.393 48.316C161.393 48.564 161.457 48.8 161.585 49.024C161.713 49.248 161.965 49.552 162.341 49.936C162.949 49.584 163.369 49.284 163.601 49.036C163.833 48.788 163.949 48.516 163.949 48.22C163.949 47.9 163.841 47.648 163.625 47.464C163.409 47.272 163.109 47.176 162.725 47.176ZM162.413 54.364C163.341 54.364 164.093 54.048 164.669 53.416L162.137 50.812C161.473 51.188 161.013 51.528 160.757 51.832C160.509 52.136 160.385 52.476 160.385 52.852C160.385 53.308 160.569 53.676 160.937 53.956C161.313 54.228 161.805 54.364 162.413 54.364ZM177.073 46.096V55H176.257V53.752C176.001 54.176 175.661 54.5 175.237 54.724C174.821 54.948 174.349 55.06 173.821 55.06C173.229 55.06 172.693 54.924 172.213 54.652C171.733 54.38 171.357 54 171.085 53.512C170.813 53.024 170.677 52.468 170.677 51.844C170.677 51.22 170.813 50.664 171.085 50.176C171.357 49.688 171.733 49.312 172.213 49.048C172.693 48.776 173.229 48.64 173.821 48.64C174.333 48.64 174.793 48.748 175.201 48.964C175.617 49.172 175.957 49.48 176.221 49.888V46.096H177.073ZM173.893 54.304C174.333 54.304 174.729 54.204 175.081 54.004C175.441 53.796 175.721 53.504 175.921 53.128C176.129 52.752 176.233 52.324 176.233 51.844C176.233 51.364 176.129 50.936 175.921 50.56C175.721 50.184 175.441 49.896 175.081 49.696C174.729 49.488 174.333 49.384 173.893 49.384C173.445 49.384 173.041 49.488 172.681 49.696C172.329 49.896 172.049 50.184 171.841 50.56C171.641 50.936 171.541 51.364 171.541 51.844C171.541 52.324 171.641 52.752 171.841 53.128C172.049 53.504 172.329 53.796 172.681 54.004C173.041 54.204 173.445 54.304 173.893 54.304ZM182.146 54.304C182.538 54.304 182.898 54.236 183.226 54.1C183.562 53.956 183.846 53.748 184.078 53.476L184.558 54.028C184.278 54.364 183.93 54.62 183.514 54.796C183.098 54.972 182.638 55.06 182.134 55.06C181.486 55.06 180.91 54.924 180.406 54.652C179.902 54.372 179.51 53.988 179.23 53.5C178.95 53.012 178.81 52.46 178.81 51.844C178.81 51.228 178.942 50.676 179.206 50.188C179.478 49.7 179.85 49.32 180.322 49.048C180.794 48.776 181.33 48.64 181.93 48.64C182.49 48.64 182.994 48.768 183.442 49.024C183.898 49.28 184.258 49.636 184.522 50.092C184.794 50.548 184.938 51.068 184.954 51.652L179.77 52.66C179.93 53.172 180.218 53.576 180.634 53.872C181.058 54.16 181.562 54.304 182.146 54.304ZM181.93 49.372C181.49 49.372 181.094 49.476 180.742 49.684C180.398 49.884 180.126 50.168 179.926 50.536C179.734 50.896 179.638 51.312 179.638 51.784C179.638 51.904 179.642 51.992 179.65 52.048L184.102 51.184C184.006 50.656 183.762 50.224 183.37 49.888C182.978 49.544 182.498 49.372 181.93 49.372ZM191.875 48.688L189.067 55H188.191L185.395 48.688H186.283L188.647 54.064L191.035 48.688H191.875ZM195.599 54.304C195.991 54.304 196.351 54.236 196.679 54.1C197.015 53.956 197.299 53.748 197.531 53.476L198.011 54.028C197.731 54.364 197.383 54.62 196.967 54.796C196.551 54.972 196.091 55.06 195.587 55.06C194.939 55.06 194.363 54.924 193.859 54.652C193.355 54.372 192.963 53.988 192.683 53.5C192.403 53.012 192.263 52.46 192.263 51.844C192.263 51.228 192.395 50.676 192.659 50.188C192.931 49.7 193.303 49.32 193.775 49.048C194.247 48.776 194.783 48.64 195.383 48.64C195.943 48.64 196.447 48.768 196.895 49.024C197.351 49.28 197.711 49.636 197.975 50.092C198.247 50.548 198.391 51.068 198.407 51.652L193.223 52.66C193.383 53.172 193.671 53.576 194.087 53.872C194.511 54.16 195.015 54.304 195.599 54.304ZM195.383 49.372C194.943 49.372 194.547 49.476 194.195 49.684C193.851 49.884 193.579 50.168 193.379 50.536C193.187 50.896 193.091 51.312 193.091 51.784C193.091 51.904 193.095 51.992 193.103 52.048L197.555 51.184C197.459 50.656 197.215 50.224 196.823 49.888C196.431 49.544 195.951 49.372 195.383 49.372ZM201.917 55.06C201.349 55.06 200.909 54.9 200.597 54.58C200.293 54.26 200.141 53.816 200.141 53.248V46.096H200.993V53.176C200.993 53.552 201.081 53.84 201.257 54.04C201.433 54.232 201.697 54.328 202.049 54.328C202.273 54.328 202.465 54.292 202.625 54.22L202.685 54.928C202.437 55.016 202.181 55.06 201.917 55.06ZM206.307 55.06C205.699 55.06 205.151 54.924 204.663 54.652C204.175 54.372 203.791 53.988 203.511 53.5C203.231 53.012 203.091 52.46 203.091 51.844C203.091 51.228 203.231 50.676 203.511 50.188C203.791 49.7 204.175 49.32 204.663 49.048C205.151 48.776 205.699 48.64 206.307 48.64C206.915 48.64 207.463 48.776 207.951 49.048C208.439 49.32 208.819 49.7 209.091 50.188C209.371 50.676 209.511 51.228 209.511 51.844C209.511 52.46 209.371 53.012 209.091 53.5C208.819 53.988 208.439 54.372 207.951 54.652C207.463 54.924 206.915 55.06 206.307 55.06ZM206.307 54.304C206.755 54.304 207.155 54.204 207.507 54.004C207.867 53.796 208.147 53.504 208.347 53.128C208.547 52.752 208.647 52.324 208.647 51.844C208.647 51.364 208.547 50.936 208.347 50.56C208.147 50.184 207.867 49.896 207.507 49.696C207.155 49.488 206.755 49.384 206.307 49.384C205.859 49.384 205.455 49.488 205.095 49.696C204.743 49.896 204.463 50.184 204.255 50.56C204.055 50.936 203.955 51.364 203.955 51.844C203.955 52.324 204.055 52.752 204.255 53.128C204.463 53.504 204.743 53.796 205.095 54.004C205.455 54.204 205.859 54.304 206.307 54.304ZM214.503 48.64C215.095 48.64 215.631 48.776 216.111 49.048C216.591 49.312 216.967 49.688 217.239 50.176C217.511 50.664 217.647 51.22 217.647 51.844C217.647 52.476 217.511 53.036 217.239 53.524C216.967 54.012 216.591 54.392 216.111 54.664C215.639 54.928 215.103 55.06 214.503 55.06C213.991 55.06 213.527 54.956 213.111 54.748C212.703 54.532 212.367 54.22 212.103 53.812V57.328H211.251V48.688H212.067V49.936C212.323 49.52 212.659 49.2 213.075 48.976C213.499 48.752 213.975 48.64 214.503 48.64ZM214.443 54.304C214.883 54.304 215.283 54.204 215.643 54.004C216.003 53.796 216.283 53.504 216.483 53.128C216.691 52.752 216.795 52.324 216.795 51.844C216.795 51.364 216.691 50.94 216.483 50.572C216.283 50.196 216.003 49.904 215.643 49.696C215.283 49.488 214.883 49.384 214.443 49.384C213.995 49.384 213.591 49.488 213.23 49.696C212.879 49.904 212.599 50.196 212.391 50.572C212.191 50.94 212.091 51.364 212.091 51.844C212.091 52.324 212.191 52.752 212.391 53.128C212.599 53.504 212.879 53.796 213.23 54.004C213.591 54.204 213.995 54.304 214.443 54.304ZM227.255 48.64C228.047 48.64 228.667 48.868 229.115 49.324C229.571 49.78 229.799 50.452 229.799 51.34V55H228.947V51.424C228.947 50.768 228.787 50.268 228.467 49.924C228.155 49.58 227.711 49.408 227.135 49.408C226.479 49.408 225.963 49.612 225.587 50.02C225.211 50.42 225.023 50.976 225.023 51.688V55H224.171V51.424C224.171 50.768 224.011 50.268 223.691 49.924C223.379 49.58 222.931 49.408 222.347 49.408C221.699 49.408 221.183 49.612 220.799 50.02C220.423 50.42 220.235 50.976 220.235 51.688V55H219.383V48.688H220.199V49.84C220.423 49.456 220.735 49.16 221.135 48.952C221.535 48.744 221.995 48.64 222.515 48.64C223.043 48.64 223.499 48.752 223.883 48.976C224.275 49.2 224.567 49.532 224.759 49.972C224.991 49.556 225.323 49.232 225.755 49C226.195 48.76 226.695 48.64 227.255 48.64ZM234.833 54.304C235.225 54.304 235.585 54.236 235.913 54.1C236.249 53.956 236.533 53.748 236.765 53.476L237.245 54.028C236.965 54.364 236.617 54.62 236.201 54.796C235.785 54.972 235.325 55.06 234.821 55.06C234.173 55.06 233.597 54.924 233.093 54.652C232.589 54.372 232.197 53.988 231.917 53.5C231.637 53.012 231.497 52.46 231.497 51.844C231.497 51.228 231.629 50.676 231.893 50.188C232.165 49.7 232.537 49.32 233.009 49.048C233.481 48.776 234.017 48.64 234.617 48.64C235.177 48.64 235.681 48.768 236.129 49.024C236.585 49.28 236.945 49.636 237.209 50.092C237.481 50.548 237.625 51.068 237.641 51.652L232.457 52.66C232.617 53.172 232.905 53.576 233.321 53.872C233.745 54.16 234.249 54.304 234.833 54.304ZM234.617 49.372C234.177 49.372 233.781 49.476 233.429 49.684C233.085 49.884 232.813 50.168 232.613 50.536C232.421 50.896 232.325 51.312 232.325 51.784C232.325 51.904 232.329 51.992 232.337 52.048L236.789 51.184C236.693 50.656 236.449 50.224 236.057 49.888C235.665 49.544 235.185 49.372 234.617 49.372ZM242.592 48.64C243.384 48.64 244.012 48.872 244.476 49.336C244.948 49.792 245.184 50.46 245.184 51.34V55H244.332V51.424C244.332 50.768 244.168 50.268 243.84 49.924C243.512 49.58 243.044 49.408 242.436 49.408C241.756 49.408 241.216 49.612 240.816 50.02C240.424 50.42 240.228 50.976 240.228 51.688V55H239.376V48.688H240.192V49.852C240.424 49.468 240.744 49.172 241.152 48.964C241.568 48.748 242.048 48.64 242.592 48.64ZM250.605 54.616C250.445 54.76 250.249 54.872 250.017 54.952C249.785 55.024 249.541 55.06 249.285 55.06C248.693 55.06 248.237 54.9 247.917 54.58C247.597 54.26 247.437 53.808 247.437 53.224V47.308H248.289V48.688H250.197V49.408H248.289V53.176C248.289 53.552 248.381 53.84 248.565 54.04C248.749 54.232 249.017 54.328 249.369 54.328C249.753 54.328 250.065 54.22 250.305 54.004L250.605 54.616Z" fill="url(#paint2_linear)"/>
<defs>
<linearGradient id="paint0_linear" x1="-34.3836" y1="25.5" x2="398.849" y2="25.5" gradientUnits="userSpaceOnUse">
<stop stop-color="#3A3D82"/>
<stop offset="1" stop-color="#E52271"/>
</linearGradient>
<linearGradient id="paint1_linear" x1="-9.48222" y1="25.5" x2="398.849" y2="25.5" gradientUnits="userSpaceOnUse">
<stop stop-color="#575757"/>
<stop offset="1" stop-color="#C6C6C6"/>
</linearGradient>
<linearGradient id="paint2_linear" x1="109.862" y1="50.5" x2="331.11" y2="50.5" gradientUnits="userSpaceOnUse">
<stop stop-color="#575757"/>
<stop offset="1" stop-color="#C6C6C6"/>
</linearGradient>
</defs>
</svg>
