<svg width="291" height="39" viewBox="0 0 291 39" fill="none" xmlns="http://www.w3.org/2000/svg">
<path d="M0.85 3H18.1C22 3 25.4333 3.71666 28.4 5.15C31.4 6.55 33.7167 8.56667 35.35 11.2C37.0167 13.8333 37.85 16.9333 37.85 20.5C37.85 24.0667 37.0167 27.1667 35.35 29.8C33.7167 32.4333 31.4 34.4667 28.4 35.9C25.4333 37.3 22 38 18.1 38H0.85V3ZM17.6 28.8C20.1333 28.8 22.15 28.0833 23.65 26.65C25.1833 25.1833 25.95 23.1333 25.95 20.5C25.95 17.8667 25.1833 15.8333 23.65 14.4C22.15 12.9333 20.1333 12.2 17.6 12.2H12.65V28.8H17.6ZM76.6586 3V38H66.9586L53.6586 22.1V38H42.1586V3H51.8586L65.1586 18.9V3H76.6586ZM82.3441 3H99.5941C103.494 3 106.927 3.71666 109.894 5.15C112.894 6.55 115.211 8.56667 116.844 11.2C118.511 13.8333 119.344 16.9333 119.344 20.5C119.344 24.0667 118.511 27.1667 116.844 29.8C115.211 32.4333 112.894 34.4667 109.894 35.9C106.927 37.3 103.494 38 99.5941 38H82.3441V3ZM99.0941 28.8C101.627 28.8 103.644 28.0833 105.144 26.65C106.677 25.1833 107.444 23.1333 107.444 20.5C107.444 17.8667 106.677 15.8333 105.144 14.4C103.644 12.9333 101.627 12.2 99.0941 12.2H94.1441V28.8H99.0941Z" fill="#252525"/>
<path d="M147.793 38.25C145.66 38.25 143.61 37.95 141.643 37.35C139.71 36.7167 138.193 35.9333 137.093 35L138.693 32.2C139.793 33.0667 141.176 33.7833 142.843 34.35C144.51 34.8833 146.243 35.15 148.043 35.15C150.443 35.15 152.21 34.7833 153.343 34.05C154.51 33.2833 155.093 32.2167 155.093 30.85C155.093 29.8833 154.776 29.1333 154.143 28.6C153.51 28.0333 152.71 27.6167 151.743 27.35C150.776 27.05 149.493 26.7667 147.893 26.5C145.76 26.1 144.043 25.7 142.743 25.3C141.443 24.8667 140.326 24.15 139.393 23.15C138.493 22.15 138.043 20.7667 138.043 19C138.043 16.8 138.96 15 140.793 13.6C142.626 12.2 145.176 11.5 148.443 11.5C150.143 11.5 151.843 11.7333 153.543 12.2C155.243 12.6333 156.643 13.2167 157.743 13.95L156.193 16.8C154.026 15.3 151.443 14.55 148.443 14.55C146.176 14.55 144.46 14.95 143.293 15.75C142.16 16.55 141.593 17.6 141.593 18.9C141.593 19.9 141.91 20.7 142.543 21.3C143.21 21.9 144.026 22.35 144.993 22.65C145.96 22.9167 147.293 23.2 148.993 23.5C151.093 23.9 152.776 24.3 154.043 24.7C155.31 25.1 156.393 25.7833 157.293 26.75C158.193 27.7167 158.643 29.05 158.643 30.75C158.643 33.05 157.676 34.8833 155.743 36.25C153.843 37.5833 151.193 38.25 147.793 38.25ZM179.056 36.4C178.389 37 177.556 37.4667 176.556 37.8C175.589 38.1 174.573 38.25 173.506 38.25C171.039 38.25 169.139 37.5833 167.806 36.25C166.473 34.9167 165.806 33.0333 165.806 30.6V14.7H161.106V11.7H165.806V5.95H169.356V11.7H177.356V14.7H169.356V30.4C169.356 31.9667 169.739 33.1667 170.506 34C171.306 34.8 172.439 35.2 173.906 35.2C174.639 35.2 175.339 35.0833 176.006 34.85C176.706 34.6167 177.306 34.2833 177.806 33.85L179.056 36.4ZM209.218 11.7V38H205.818V33.2C204.885 34.8 203.602 36.05 201.968 36.95C200.335 37.8167 198.468 38.25 196.368 38.25C192.935 38.25 190.218 37.3 188.218 35.4C186.252 33.4667 185.268 30.65 185.268 26.95V11.7H188.818V26.6C188.818 29.3667 189.502 31.4667 190.868 32.9C192.235 34.3333 194.185 35.05 196.718 35.05C199.485 35.05 201.668 34.2167 203.268 32.55C204.868 30.85 205.668 28.5 205.668 25.5V11.7H209.218ZM243.161 0.899998V38H239.761V32.8C238.694 34.5667 237.278 35.9167 235.511 36.85C233.778 37.7833 231.811 38.25 229.611 38.25C227.144 38.25 224.911 37.6833 222.911 36.55C220.911 35.4167 219.344 33.8333 218.211 31.8C217.078 29.7667 216.511 27.45 216.511 24.85C216.511 22.25 217.078 19.9333 218.211 17.9C219.344 15.8667 220.911 14.3 222.911 13.2C224.911 12.0667 227.144 11.5 229.611 11.5C231.744 11.5 233.661 11.95 235.361 12.85C237.094 13.7167 238.511 15 239.611 16.7V0.899998H243.161ZM229.911 35.1C231.744 35.1 233.394 34.6833 234.861 33.85C236.361 32.9833 237.528 31.7667 238.361 30.2C239.228 28.6333 239.661 26.85 239.661 24.85C239.661 22.85 239.228 21.0667 238.361 19.5C237.528 17.9333 236.361 16.7333 234.861 15.9C233.394 15.0333 231.744 14.6 229.911 14.6C228.044 14.6 226.361 15.0333 224.861 15.9C223.394 16.7333 222.228 17.9333 221.361 19.5C220.528 21.0667 220.111 22.85 220.111 24.85C220.111 26.85 220.528 28.6333 221.361 30.2C222.228 31.7667 223.394 32.9833 224.861 33.85C226.361 34.6833 228.044 35.1 229.911 35.1ZM253.048 11.7H256.598V38H253.048V11.7ZM254.848 5.95C254.114 5.95 253.498 5.7 252.998 5.2C252.498 4.7 252.248 4.1 252.248 3.4C252.248 2.73333 252.498 2.15 252.998 1.65C253.498 1.15 254.114 0.899998 254.848 0.899998C255.581 0.899998 256.198 1.15 256.698 1.65C257.198 2.11666 257.448 2.68333 257.448 3.35C257.448 4.08333 257.198 4.7 256.698 5.2C256.198 5.7 255.581 5.95 254.848 5.95ZM277.225 38.25C274.692 38.25 272.409 37.6833 270.375 36.55C268.342 35.3833 266.742 33.7833 265.575 31.75C264.409 29.7167 263.825 27.4167 263.825 24.85C263.825 22.2833 264.409 19.9833 265.575 17.95C266.742 15.9167 268.342 14.3333 270.375 13.2C272.409 12.0667 274.692 11.5 277.225 11.5C279.759 11.5 282.042 12.0667 284.075 13.2C286.109 14.3333 287.692 15.9167 288.825 17.95C289.992 19.9833 290.575 22.2833 290.575 24.85C290.575 27.4167 289.992 29.7167 288.825 31.75C287.692 33.7833 286.109 35.3833 284.075 36.55C282.042 37.6833 279.759 38.25 277.225 38.25ZM277.225 35.1C279.092 35.1 280.759 34.6833 282.225 33.85C283.725 32.9833 284.892 31.7667 285.725 30.2C286.559 28.6333 286.975 26.85 286.975 24.85C286.975 22.85 286.559 21.0667 285.725 19.5C284.892 17.9333 283.725 16.7333 282.225 15.9C280.759 15.0333 279.092 14.6 277.225 14.6C275.359 14.6 273.675 15.0333 272.175 15.9C270.709 16.7333 269.542 17.9333 268.675 19.5C267.842 21.0667 267.425 22.85 267.425 24.85C267.425 26.85 267.842 28.6333 268.675 30.2C269.542 31.7667 270.709 32.9833 272.175 33.85C273.675 34.6833 275.359 35.1 277.225 35.1Z" fill="#3A3D82"/>
</svg>
